<svg width="500" height="500" viewBox="0 0 500 500" xmlns="http://www.w3.org/2000/svg">
  <!-- Background circles -->
  <circle cx="75" cy="165" r="4" fill="#4169E1"/>
  <circle cx="55" cy="185" r="4" fill="#4169E1"/>
  <circle cx="420" cy="225" r="4" fill="#4169E1"/>
  <circle cx="400" cy="245" r="4" fill="#4169E1"/>
  
  <!-- Connection lines -->
  <line x1="79" y1="165" x2="145" y2="165" stroke="#4169E1" stroke-width="3"/>
  <line x1="59" y1="185" x2="145" y2="185" stroke="#4169E1" stroke-width="3"/>
  <line x1="340" y1="225" x2="416" y2="225" stroke="#4169E1" stroke-width="3"/>
  <line x1="340" y1="245" x2="396" y2="245" stroke="#4169E1" stroke-width="3"/>
  
  <!-- Main logo shape -->
  <g transform="translate(150, 120)">
    <!-- First purple block -->
    <path d="M0 0 L120 0 L100 40 L20 40 Z" fill="#663399"/>
    <path d="M20 40 L100 40 L80 80 L0 80 Z" fill="#8A2BE2"/>
    
    <!-- Second purple block -->
    <path d="M80 40 L200 40 L180 80 L100 80 Z" fill="#4B0082"/>
    <path d="M100 80 L180 80 L160 120 L80 120 Z" fill="#663399"/>
    
    <!-- Third purple block -->
    <path d="M160 80 L280 80 L260 120 L180 120 Z" fill="#8A2BE2"/>
    <path d="M180 120 L260 120 L240 160 L160 160 Z" fill="#4B0082"/>
    
    <!-- Lightning bolt -->
    <path d="M180 100 L200 100 L185 130 L205 130 L175 170 L190 140 L175 140 L190 110 Z" fill="#B19CD9"/>
  </g>
</svg>